<svg width="32" height="32" viewBox="0 0 32 32" fill="none" xmlns="http://www.w3.org/2000/svg">
<path d="M16 16V4" stroke="url(#paint0_linear_6024_72969)" stroke-width="2" stroke-linecap="round" stroke-linejoin="round"/>
<path d="M26.3883 10L5.61328 22" stroke="url(#paint1_linear_6024_72969)" stroke-width="2" stroke-linecap="round" stroke-linejoin="round"/>
<path d="M4.20012 18.2C4.0637 17.4747 3.99673 16.738 4.00012 16C3.99854 13.5182 4.76727 11.0972 6.20022 9.07089C7.63316 7.04461 9.65969 5.51303 12.0001 4.6875V13.6875L4.20012 18.2Z" stroke="url(#paint2_linear_6024_72969)" stroke-width="2" stroke-linecap="round" stroke-linejoin="round"/>
<path d="M15.9984 4C18.1011 4.00024 20.1669 4.55298 21.9887 5.60287C23.8106 6.65275 25.3245 8.16292 26.379 9.9821C27.4335 11.8013 27.9915 13.8656 27.997 15.9683C28.0026 18.071 27.4555 20.1382 26.4107 21.963C25.3658 23.7877 23.8598 25.3058 22.0436 26.3653C20.2273 27.4248 18.1645 27.9885 16.0618 27.9998C13.9592 28.0112 11.8904 27.4698 10.0628 26.43C8.23522 25.3901 6.71293 23.8883 5.64844 22.075" stroke="url(#paint3_linear_6024_72969)" stroke-width="2" stroke-linecap="round" stroke-linejoin="round"/>
<defs>
<linearGradient id="paint0_linear_6024_72969" x1="16.2748" y1="8.41996" x2="17.0682" y2="8.48389" gradientUnits="userSpaceOnUse">
<stop stop-color="#D53860"/>
<stop offset="0.951504" stop-color="#E4AA36"/>
</linearGradient>
<linearGradient id="paint1_linear_6024_72969" x1="11.3231" y1="14.42" x2="15.6859" y2="21.7234" gradientUnits="userSpaceOnUse">
<stop stop-color="#D53860"/>
<stop offset="0.951504" stop-color="#E4AA36"/>
</linearGradient>
<linearGradient id="paint2_linear_6024_72969" x1="6.19875" y1="9.66456" x2="11.01" y2="12.4189" gradientUnits="userSpaceOnUse">
<stop stop-color="#D53860"/>
<stop offset="0.951504" stop-color="#E4AA36"/>
</linearGradient>
<linearGradient id="paint3_linear_6024_72969" x1="11.7907" y1="12.8399" x2="21.6461" y2="21.7136" gradientUnits="userSpaceOnUse">
<stop stop-color="#D53860"/>
<stop offset="0.951504" stop-color="#E4AA36"/>
</linearGradient>
</defs>
</svg>
